<?xml version="1.0" standalone="no"?>
<!DOCTYPE svg PUBLIC "-//W3C//DTD SVG 20010904//EN"
 "http://www.w3.org/TR/2001/REC-SVG-20010904/DTD/svg10.dtd">
<svg version="1.0" xmlns="http://www.w3.org/2000/svg"
 width="1280.000000pt" height="1048.000000pt" viewBox="0 0 1280.000000 1048.000000"
 preserveAspectRatio="xMidYMid meet">
<metadata>
Created by potrace 1.15, written by Peter Selinger 2001-2017
</metadata>
<g transform="translate(0.000000,1048.000000) scale(0.100000,-0.100000)"
fill="#69A2CC" stroke="none">
<path d="M2016 10459 c-34 -26 -34 -63 -1 -177 33 -117 57 -271 105 -676 63
-537 93 -727 161 -1029 104 -463 240 -829 498 -1347 308 -615 612 -1068 801
-1188 30 -20 72 -55 93 -79 21 -24 44 -43 51 -43 7 0 23 -12 37 -26 13 -14 38
-33 54 -41 17 -9 75 -59 130 -112 115 -111 137 -127 540 -389 165 -107 317
-208 338 -225 37 -29 37 -30 20 -49 -22 -24 -245 -134 -438 -215 l-140 -59
-415 7 c-505 8 -623 22 -1005 115 -342 83 -433 123 -1270 564 -668 351 -775
406 -822 420 -38 12 -45 11 -77 -10 -68 -41 -239 -293 -287 -419 -11 -30 -24
-85 -28 -121 -8 -61 2 -339 14 -387 5 -20 1 -23 -22 -23 -77 0 -233 -138 -288
-255 -51 -108 -60 -161 -59 -335 1 -258 40 -419 143 -585 27 -44 70 -100 95
-125 25 -24 46 -48 46 -53 0 -5 -20 -31 -45 -59 -74 -83 -136 -170 -166 -233
-38 -79 -53 -237 -38 -398 9 -98 15 -122 49 -194 74 -156 141 -241 318 -403
55 -50 103 -98 106 -105 3 -8 1 -86 -4 -172 -13 -221 -3 -309 46 -414 101
-216 246 -329 604 -470 l145 -57 26 -79 c15 -43 41 -109 59 -148 17 -38 47
-112 66 -164 49 -135 87 -195 183 -292 211 -210 651 -427 823 -405 172 23 204
69 675 951 288 539 376 695 500 882 264 403 453 559 728 604 129 21 480 16
654 -9 80 -11 148 -19 153 -16 4 3 56 -16 116 -40 197 -81 992 -321 1261 -380
584 -129 1172 -113 1738 50 297 84 579 212 809 366 176 117 277 202 434 364
215 221 359 427 560 803 254 474 419 908 590 1548 175 654 301 1000 445 1224
130 202 354 332 659 384 140 23 276 21 536 -9 221 -26 432 -34 458 -18 7 5 15
25 19 45 4 28 0 46 -20 80 -32 54 -50 70 -257 227 -287 216 -370 311 -586 665
-113 186 -185 256 -334 328 -172 83 -320 124 -525 147 -248 27 -404 1 -615
-105 -183 -92 -320 -198 -568 -438 -192 -186 -450 -418 -599 -538 -106 -86
-401 -266 -486 -298 -79 -29 -223 -51 -333 -51 -156 0 -255 35 -500 176 -283
162 -475 328 -600 515 -49 75 -89 158 -211 444 -170 399 -280 571 -523 815
-159 160 -297 246 -612 381 -367 158 -778 295 -1603 539 -1401 413 -1452 431
-1935 665 -381 185 -419 197 -474 154z"/>
</g>
</svg>
