<svg xmlns="http://www.w3.org/2000/svg" viewBox="0 0 40 40" style="background-color: url(#myGradient)">
    <defs>
        <linearGradient id="MyGradient">
          <stop offset="5%" stop-color="#F60" />
          <stop offset="95%" stop-color="#FF6" />
        </linearGradient>
      </defs>
    <g id="Page-1" fill="url(#myGradient)" fill-rule="evenodd">
        <g id="Artboard-5" fill="orange">
            <path id="Combined-Shape" d="M0 38.59l2.83-2.83 1.41 1.41L1.41 40H0v-1.41zM0 1.4l2.83 2.83 1.41-1.41L1.41 0H0v1.41zM38.59 40l-2.83-2.83 1.41-1.41L40 38.59V40h-1.41zM40 1.41l-2.83 2.83-1.41-1.41L38.59 0H40v1.41zM20 18.6l2.83-2.83 1.41 1.41L21.41 20l2.83 2.83-1.41 1.41L20 21.41l-2.83 2.83-1.41-1.41L18.59 20l-2.83-2.83 1.41-1.41L20 18.59z" />
        </g>
    </g>
</svg>