<?xml version="1.0" standalone="no"?>
<!DOCTYPE svg PUBLIC "-//W3C//DTD SVG 20010904//EN"
 "http://www.w3.org/TR/2001/REC-SVG-20010904/DTD/svg10.dtd">
<svg version="1.0" xmlns="http://www.w3.org/2000/svg"
 width="1280.000000pt" height="1178.000000pt" viewBox="0 0 1280.000000 1178.000000"
 preserveAspectRatio="xMidYMid meet">
<metadata>
Created by potrace 1.15, written by Peter Selinger 2001-2017
</metadata>
<g transform="translate(0.000000,1178.000000) scale(0.100000,-0.100000)"
fill="#fff" stroke="none">
<path d="M9589 11420 c-180 -29 -314 -103 -705 -388 -345 -251 -454 -318 -611
-377 -37 -14 -95 -41 -128 -59 -50 -28 -94 -40 -260 -71 -110 -20 -254 -50
-320 -65 -66 -16 -180 -43 -253 -60 -288 -68 -493 -86 -687 -60 -38 5 -124 16
-190 25 -66 9 -172 25 -235 35 -63 11 -154 25 -202 30 -188 22 -467 80 -575
120 -204 77 -592 293 -806 450 -226 165 -508 266 -685 244 -72 -8 -193 -57
-232 -94 -41 -38 -42 -90 -2 -117 41 -28 101 -52 157 -62 100 -19 274 -102
264 -126 -2 -5 -32 -20 -66 -32 -87 -30 -146 -67 -197 -124 -80 -89 -71 -147
29 -187 43 -17 89 -26 159 -31 56 -3 101 -11 103 -17 2 -5 -22 -21 -53 -34
-117 -48 -163 -119 -172 -261 -3 -59 1 -120 13 -190 24 -135 23 -232 -4 -348
-21 -90 -67 -370 -91 -556 -19 -142 -14 -403 8 -510 41 -190 123 -349 270
-524 133 -158 144 -177 140 -236 -3 -33 -23 -91 -59 -170 -76 -169 -256 -528
-335 -670 -86 -152 -297 -594 -357 -745 -110 -276 -156 -505 -164 -811 -10
-383 21 -632 108 -882 33 -95 85 -244 116 -332 153 -445 273 -676 584 -1128
170 -247 285 -401 503 -672 l176 -220 -37 -7 c-21 -4 -108 -14 -193 -23 -246
-25 -385 -42 -530 -65 -74 -11 -168 -25 -208 -30 -108 -14 -450 -75 -672 -120
-130 -26 -245 -43 -346 -49 -83 -6 -158 -13 -166 -16 -12 -5 -17 6 -22 47 -10
87 -53 241 -70 254 -11 8 -14 20 -10 41 10 49 -9 56 -174 61 -124 3 -164 1
-252 -18 -114 -23 -257 -75 -333 -121 -26 -16 -51 -29 -55 -29 -4 0 -7 55 -7
123 0 104 -5 137 -29 222 -32 110 -115 282 -174 360 -39 52 -71 66 -99 43 -9
-7 -23 -13 -31 -13 -42 0 -173 -231 -217 -381 -20 -67 -28 -121 -32 -216 l-6
-126 -91 48 c-50 27 -136 61 -191 77 -92 25 -114 28 -277 28 -128 0 -180 -3
-189 -12 -7 -7 -21 -13 -30 -13 -40 0 -40 -24 1 -109 85 -176 232 -343 374
-425 37 -21 69 -42 71 -46 3 -5 2 -28 -1 -52 -6 -43 -10 -47 -83 -95 -93 -62
-195 -161 -272 -265 -61 -82 -117 -187 -121 -227 -3 -23 0 -26 56 -52 41 -20
247 -17 366 5 96 17 281 74 317 96 16 10 24 10 45 -4 23 -15 26 -24 31 -109
11 -162 71 -330 173 -483 43 -66 60 -84 79 -84 13 0 27 -4 30 -10 14 -22 60
-10 85 23 77 98 160 266 190 383 11 42 23 119 26 170 7 93 7 94 40 115 l33 20
42 -21 c166 -85 320 -115 556 -108 142 4 164 13 145 67 l-11 31 87 0 c102 0
185 19 261 60 l55 30 549 0 c317 0 576 4 611 10 301 49 394 60 773 95 150 14
342 34 427 45 357 45 585 55 1241 55 667 -1 1119 -18 1440 -55 94 -10 213 -24
265 -30 52 -6 140 -17 195 -25 55 -9 147 -22 205 -31 58 -8 156 -26 218 -40
108 -23 130 -24 420 -23 169 1 402 5 517 8 l210 6 0 44 0 45 -167 57 c-92 31
-186 60 -209 64 -70 12 -26 22 158 35 203 15 319 11 580 -21 l192 -23 21 -57
c79 -218 232 -329 453 -329 81 0 98 4 194 42 128 51 167 85 160 137 -2 20 -20
69 -39 108 -19 40 -32 73 -29 73 4 0 17 -7 29 -16 13 -9 60 -30 105 -46 70
-27 96 -31 182 -32 130 -1 218 21 360 91 148 73 149 73 149 131 0 54 -10 82
-67 197 -126 253 -314 375 -557 362 -114 -6 -210 -35 -356 -108 l-102 -51
-118 25 c-204 44 -253 50 -453 56 l-194 6 64 45 c72 50 243 196 304 259 21 23
42 41 45 41 4 0 13 -19 19 -42 17 -57 79 -182 103 -207 10 -11 24 -18 31 -15
8 3 20 -2 27 -11 42 -50 121 29 213 211 41 82 86 212 95 279 10 71 24 75 125
31 176 -75 331 -116 447 -116 81 0 110 17 110 63 0 98 -190 368 -332 474 -27
19 -48 41 -48 48 0 7 25 25 56 39 83 38 172 106 247 186 100 108 176 231 164
263 -9 25 -72 38 -207 44 -147 6 -257 -11 -390 -60 l-85 -32 -1 125 c0 95 -5
145 -22 208 -25 96 -67 199 -105 260 -23 36 -32 42 -62 42 -18 0 -37 -4 -40
-10 -3 -5 -16 -10 -27 -10 -78 0 -232 -298 -254 -491 -4 -33 -9 -59 -11 -59
-3 0 -28 16 -57 34 -108 72 -295 126 -438 126 -27 0 -48 3 -46 8 23 51 166
325 219 417 90 159 108 210 164 470 25 121 58 261 71 310 24 88 25 99 27 510
l2 420 -37 135 c-38 139 -116 382 -163 505 -33 88 -85 184 -184 339 -77 120
-241 394 -241 401 0 9 -110 185 -199 319 -50 76 -116 189 -145 250 -30 61 -75
142 -100 181 -25 38 -46 75 -46 81 0 7 18 34 40 61 156 188 226 305 284 473
46 135 66 274 66 453 0 246 -44 468 -150 761 -57 156 -61 197 -30 296 27 84
36 218 21 292 -16 77 -64 170 -107 207 -19 17 -58 43 -86 57 -68 34 -54 45 72
55 117 9 156 26 183 81 29 58 15 108 -50 178 -57 62 -99 84 -197 104 l-59 12
49 36 c60 44 199 110 279 133 62 18 115 62 115 95 0 27 -47 79 -88 96 -44 18
-290 27 -373 14z m-802 -1023 c103 -15 122 -21 255 -85 187 -91 254 -136 318
-214 173 -207 277 -456 377 -903 21 -93 23 -358 4 -463 -20 -104 -120 -322
-213 -461 -132 -198 -301 -383 -423 -462 -202 -132 -371 -225 -559 -309 -69
-30 -250 -89 -310 -101 -111 -21 -246 -29 -493 -28 -142 0 -266 0 -276 0 -30
0 -7 20 52 45 31 14 65 29 76 34 33 16 216 90 275 111 30 11 64 24 75 29 60
25 180 68 310 111 50 17 99 34 110 39 11 5 47 19 80 31 33 12 78 30 101 40 22
10 65 28 95 39 81 32 234 115 329 178 76 51 221 183 278 254 44 56 153 223
157 243 3 11 13 58 24 105 24 106 29 144 36 295 5 114 4 129 -30 269 -20 82
-45 166 -55 187 -37 71 -142 234 -164 254 -193 171 -264 214 -476 295 -74 28
-159 60 -189 72 -50 19 -73 21 -325 21 -240 1 -285 -2 -391 -22 -169 -31 -282
-57 -340 -78 -114 -41 -376 -199 -522 -315 -67 -53 -66 -53 -124 -6 -243 195
-394 275 -604 318 -33 7 -76 17 -95 23 -61 20 -305 11 -680 -24 -250 -23 -404
-70 -670 -204 -311 -157 -432 -300 -526 -626 -25 -87 -26 -102 -21 -234 6
-153 22 -230 71 -340 53 -118 129 -249 160 -275 17 -14 73 -63 125 -109 85
-75 114 -93 266 -167 248 -120 467 -201 870 -323 39 -12 93 -30 120 -40 28
-11 84 -32 125 -47 41 -15 93 -35 115 -44 247 -107 304 -133 329 -150 l30 -19
-25 -5 c-222 -44 -567 -37 -882 19 -158 28 -265 63 -445 146 -46 22 -86 39
-89 39 -2 0 -54 25 -116 55 -162 79 -296 184 -451 353 -105 115 -206 245 -206
268 0 2 -11 22 -25 43 -60 96 -94 182 -126 316 l-32 140 11 160 c19 253 68
495 144 705 40 113 109 259 154 325 101 153 272 269 508 345 l127 41 327 -4
c180 -2 345 -7 367 -11 101 -18 239 -38 354 -51 69 -8 158 -19 196 -25 350
-48 463 -61 605 -67 142 -6 161 -3 420 56 25 6 77 17 115 26 39 8 120 28 180
44 118 32 181 44 345 66 58 8 128 19 155 25 141 26 181 33 305 50 149 20 240
20 407 -3z m-2905 -733 c265 -68 495 -317 563 -610 23 -99 20 -286 -6 -387
-42 -165 -119 -297 -242 -413 -152 -145 -301 -206 -506 -207 -186 0 -340 53
-499 173 -161 121 -267 296 -308 509 -40 213 19 455 160 645 117 158 321 273
551 310 53 8 221 -4 287 -20z m2514 -9 c100 -31 188 -86 282 -178 118 -115
197 -247 238 -397 23 -83 26 -318 5 -400 -76 -304 -296 -539 -569 -611 -98
-26 -259 -28 -356 -5 -143 34 -285 110 -393 209 -175 161 -282 445 -253 670
51 392 309 663 700 737 81 16 257 3 346 -25z m-1691 -1417 c84 -16 405 -15
485 0 36 7 90 14 120 15 46 2 55 -1 58 -16 8 -40 -12 -71 -123 -187 -135 -144
-162 -183 -245 -357 -35 -73 -67 -133 -72 -133 -4 0 -39 62 -76 138 -85 170
-129 237 -235 349 -45 48 -95 103 -110 121 -34 42 -36 79 -4 85 28 6 125 -1
202 -15z m845 -968 c80 -5 160 -10 178 -10 30 0 32 -2 32 -34 0 -33 -7 -40
-124 -125 -196 -144 -299 -195 -469 -233 -77 -17 -112 -19 -217 -14 -69 3
-143 10 -165 15 -22 5 -60 13 -85 16 -87 13 -271 90 -422 176 l-66 39 21 54
c21 52 23 54 67 60 25 4 98 15 163 25 l117 18 73 -62 c39 -34 111 -100 158
-148 47 -48 92 -87 100 -87 8 0 23 -7 33 -15 11 -8 28 -15 37 -15 10 0 59 49
114 115 53 63 130 145 172 183 71 65 78 69 107 61 17 -4 96 -13 176 -19z
m-2624 -43 c106 -54 216 -182 299 -347 78 -154 157 -436 187 -660 17 -135 14
-431 -6 -560 -58 -377 -194 -678 -428 -953 -235 -276 -297 -386 -333 -596 -40
-225 0 -487 100 -666 57 -102 116 -160 209 -205 92 -43 160 -56 224 -42 23 5
42 6 42 2 0 -19 -111 -149 -165 -192 -96 -78 -135 -93 -241 -93 -87 0 -94 2
-180 44 -76 38 -105 60 -195 150 -275 274 -489 755 -603 1351 -51 270 -61 387
-61 710 1 316 13 454 66 715 105 514 288 913 534 1161 110 111 213 176 322
204 67 16 172 6 229 -23z m4575 1 c81 -41 245 -202 317 -309 224 -335 378
-788 449 -1319 26 -193 26 -708 0 -900 -80 -593 -271 -1127 -523 -1462 -84
-112 -224 -245 -304 -287 -188 -100 -423 -6 -586 235 -13 19 -24 36 -24 38 0
2 24 -5 53 -15 170 -59 345 46 457 277 69 140 83 211 84 429 1 209 -7 263 -57
385 -51 127 -114 215 -340 479 -207 241 -330 556 -371 955 -20 187 -20 277 0
468 40 388 166 710 351 895 108 109 221 161 349 162 73 1 88 -2 145 -31z m689
-3770 c70 -127 171 -248 246 -295 42 -26 44 -30 42 -68 -3 -38 -6 -41 -76 -80
-102 -56 -183 -124 -251 -210 -58 -73 -121 -173 -121 -193 0 -6 24 -19 53 -28
42 -15 84 -19 214 -19 90 0 163 -2 163 -5 -1 -3 -29 -26 -63 -51 -208 -154
-201 -150 -365 -206 -138 -47 -180 -57 -347 -79 -299 -39 -384 -48 -391 -41
-4 3 18 37 48 74 30 37 85 113 123 168 38 55 108 152 155 215 111 148 308 461
467 740 37 66 71 119 74 120 3 0 16 -19 29 -42z m978 -73 c70 -38 137 -111
175 -192 53 -115 48 -263 -13 -383 -29 -56 -103 -133 -157 -162 -166 -90 -409
-2 -503 183 -96 188 -40 399 139 521 107 74 258 88 359 33z m-456 -854 c-4
-59 -5 -62 -85 -158 -134 -160 -371 -351 -552 -445 -66 -33 -84 -62 -47 -74 9
-3 24 -9 32 -12 8 -3 159 -6 335 -7 334 -1 334 -1 568 -53 49 -11 90 -22 91
-24 7 -7 46 -101 44 -104 -2 -1 -50 4 -108 12 -58 7 -163 14 -235 14 -173 0
-465 -27 -486 -46 -8 -8 -23 -14 -33 -14 -21 0 -32 -26 -18 -43 17 -20 125
-55 237 -76 55 -11 111 -24 125 -30 31 -14 -40 -10 -235 15 -152 19 -483 21
-654 4 -82 -8 -134 -19 -190 -40 -86 -34 -153 -70 -158 -85 -4 -13 54 -34 212
-76 66 -17 127 -34 135 -38 8 -3 -143 -7 -337 -9 -344 -2 -355 -2 -455 22 -57
14 -159 34 -228 45 -69 11 -154 25 -190 31 -63 10 -203 25 -515 55 -515 49
-1300 67 -1931 45 -319 -11 -482 -23 -709 -50 -88 -11 -284 -31 -435 -45 -322
-30 -458 -46 -670 -80 -150 -24 -171 -25 -658 -25 l-503 0 35 63 c19 34 49
105 67 157 26 79 33 115 37 214 4 93 2 120 -9 126 -19 12 -14 13 191 55 343
69 684 122 1045 159 497 53 568 57 631 35 73 -24 105 -43 171 -97 32 -26 74
-58 93 -71 19 -13 54 -43 77 -67 62 -63 172 -102 322 -115 64 -6 155 -17 202
-25 111 -18 291 -18 397 1 88 15 96 18 127 46 18 16 28 16 97 6 56 -8 102 -8
163 0 l85 10 55 59 c30 32 86 100 124 149 38 50 77 97 87 106 29 25 81 39 145
39 l58 0 39 -53 c49 -65 102 -112 149 -132 19 -8 66 -44 103 -78 55 -53 79
-67 139 -87 64 -20 84 -22 175 -16 91 6 108 4 150 -15 106 -47 356 -63 525
-34 47 8 139 19 203 24 191 16 274 68 298 187 21 109 19 106 84 121 33 7 74
24 91 37 25 19 55 27 155 40 535 67 511 62 723 133 l198 67 162 122 c89 67
180 140 201 163 50 51 62 43 58 -38z m-9066 -512 c118 -56 224 -188 260 -323
19 -69 18 -200 -2 -267 -28 -92 -74 -170 -140 -236 -87 -88 -151 -116 -274
-121 -154 -6 -265 41 -376 161 -262 283 -110 737 273 818 21 4 73 6 116 4 61
-4 92 -11 143 -36z m865 -224 c1 -168 -47 -291 -142 -367 l-36 -29 -94 71
c-52 39 -111 78 -131 87 -31 14 -38 22 -38 44 0 23 10 32 58 59 118 67 245
185 321 299 l36 54 13 -54 c7 -30 13 -103 13 -164z m9190 114 c54 -18 132 -82
183 -150 59 -78 149 -259 144 -291 -6 -45 -241 -138 -349 -138 -192 1 -361
147 -453 393 l-26 67 48 24 c79 40 174 79 227 92 64 16 182 17 226 3z m-8786
-149 c143 -17 135 -11 135 -89 0 -83 -30 -205 -71 -289 -39 -80 -126 -174
-191 -206 -46 -23 -64 -26 -163 -26 l-110 0 -54 80 c-30 44 -52 81 -50 83 2 2
21 14 41 26 105 63 201 234 210 373 2 35 5 38 38 44 19 3 42 7 50 9 31 6 77 5
165 -5z m8045 -196 c138 -18 196 -32 210 -49 8 -9 -6 -7 -39 6 -66 25 -181 25
-279 0 l-74 -18 -96 38 c-90 35 -94 38 -61 42 51 7 208 -2 339 -19z m79 -120
c54 -11 135 -95 181 -186 42 -84 49 -118 27 -136 -33 -28 -125 -54 -192 -54
-86 -1 -131 18 -196 83 -49 48 -126 190 -114 209 10 16 111 60 170 75 59 16
82 17 124 9z"/>
<path d="M5625 9353 c-11 -2 -45 -13 -75 -25 -180 -65 -286 -173 -332 -337
-75 -271 93 -526 398 -606 227 -59 453 42 571 255 102 183 60 439 -94 580 -79
72 -120 96 -205 120 -68 19 -207 26 -263 13z m74 -420 c17 -10 29 -23 27 -30
-3 -6 2 -17 10 -23 19 -16 18 -30 -3 -30 -9 0 -25 -7 -35 -17 -16 -14 -18 -15
-18 0 0 9 5 19 10 22 18 11 11 38 -17 67 -30 32 -19 36 26 11z"/>
<path d="M7974 9346 c-82 -20 -199 -81 -254 -132 -107 -100 -156 -225 -147
-374 12 -203 125 -346 340 -431 76 -30 91 -33 197 -33 131 0 166 9 257 66 136
86 228 229 239 373 12 164 -33 294 -140 400 -69 68 -136 107 -221 130 -70 18
-199 18 -271 1z m126 -411 c7 -8 19 -15 28 -15 13 0 12 -3 -3 -20 -15 -16 -15
-22 -5 -35 10 -13 9 -15 -8 -15 -12 0 -24 -4 -27 -10 -3 -5 -13 -10 -21 -10
-11 0 -10 7 7 30 19 25 21 33 11 55 -7 14 -12 28 -12 30 0 10 18 4 30 -10z"/>
<path d="M2555 2390 c-19 -30 57 -138 89 -127 23 8 15 35 -24 85 -42 53 -54
60 -65 42z"/>
</g>
</svg>
