<svg width="401" height="220" viewBox="0 0 401 220" fill="none" xmlns="http://www.w3.org/2000/svg">
<rect width="401" height="220" fill="#FFF7FB"/>
<path d="M385.375 212.949C385.375 210.411 386.927 208.295 389.888 207.026L392.286 206.039V214.783C392.286 215.206 392.286 215.77 392.427 216.052C390.734 216.757 389.888 217.039 389.042 217.039C386.645 216.898 385.375 215.206 385.375 212.949ZM392.145 203.501V204.347L384.388 207.731C380.721 209.283 378.888 211.257 378.888 214.077C378.888 217.603 381.427 219.859 384.811 219.859C386.504 219.859 387.632 219.577 392.709 217.321C393.273 219.154 394.683 219.859 396.939 219.859C398.209 219.859 399.337 219.436 400.042 219.013C399.337 218.449 398.773 217.462 398.773 215.77V204.488C398.773 199.411 396.093 196.731 391.439 196.731C388.901 196.731 386.786 197.436 382.273 199.411V201.103C384.529 200.116 386.221 199.411 388.055 199.411C390.734 199.27 392.145 200.68 392.145 203.501ZM371.978 185.449L367.324 189.962L371.978 194.616L376.491 189.962L371.978 185.449ZM369.016 204.911V215.206C369.016 218.308 370.145 220 372.965 220C374.516 220 375.927 219.436 376.632 218.59C375.927 218.026 375.362 217.462 375.362 214.359V196.731L367.888 199.834C368.734 201.385 369.016 202.231 369.016 204.911ZM349.696 215.629V200.821C351.67 199.975 352.375 199.834 353.221 199.834C355.619 199.834 357.734 202.372 357.734 208.154C357.734 214.077 355.76 218.449 352.516 218.449C350.965 218.167 349.696 217.321 349.696 215.629ZM343.35 194.616V219.859L348.85 218.308C350.401 219.295 351.388 219.859 353.645 219.859C357.875 219.859 364.786 216.757 364.786 206.18C364.786 199.693 361.401 196.59 357.875 196.59C356.042 196.59 355.055 196.872 349.978 199.129V186.295L342.504 189.398C343.068 191.231 343.35 192.077 343.35 194.616ZM324.734 212.949C324.734 210.411 326.286 208.295 329.247 207.026L331.645 206.039V214.783C331.645 215.206 331.645 215.77 331.786 216.052C330.093 216.757 329.247 217.039 328.401 217.039C326.004 216.898 324.734 215.206 324.734 212.949ZM331.645 203.501V204.347L323.888 207.731C320.221 209.283 318.388 211.257 318.388 214.077C318.388 217.603 320.927 219.859 324.311 219.859C326.004 219.859 327.132 219.577 332.209 217.321C332.773 219.154 334.183 219.859 336.439 219.859C337.709 219.859 338.837 219.436 339.542 219.013C338.837 218.449 338.273 217.462 338.273 215.77V204.488C338.273 199.411 335.593 196.731 330.939 196.731C328.401 196.731 326.286 197.436 321.773 199.411V201.103C324.029 200.116 325.721 199.411 327.555 199.411C330.234 199.27 331.645 200.68 331.645 203.501ZM302.734 219.436H311.619C310.632 217.744 310.491 216.898 310.491 214.359V205.616C312.183 203.077 314.58 202.09 318.811 202.09V196.731C313.875 196.731 312.042 199.411 310.491 203.783V196.731L303.016 199.834C303.862 201.526 304.145 202.372 304.145 204.911V214.359C303.862 216.898 303.58 217.744 302.734 219.436ZM278.196 207.872C278.196 207.731 278.337 207.59 278.337 207.449L283.414 196.308L287.645 207.872H278.196ZM270.862 219.436H277.773C276.786 217.18 276.504 213.231 277.491 209.424H288.068L290.042 214.783C291.029 217.321 290.747 218.308 289.901 219.436H300.337C299.35 218.59 298.363 217.18 297.516 214.783L287.786 189.116L281.58 191.795C282.004 194.334 281.298 197.295 278.478 203.359L270.862 219.436ZM242.234 208.154C242.234 200.398 244.632 198.001 247.029 198.001C249.427 198.001 251.824 200.398 251.824 208.154C251.824 216.052 249.427 218.308 247.029 218.308C244.491 218.308 242.234 216.052 242.234 208.154ZM246.888 219.859C252.811 219.859 258.452 216.052 258.452 208.154C258.452 200.257 252.811 196.59 246.888 196.59C240.965 196.59 235.324 200.398 235.324 208.154C235.465 216.052 241.106 219.859 246.888 219.859ZM221.08 200.539V212.667C221.08 217.039 223.196 219.859 227.427 219.859C229.683 219.859 231.375 219.295 234.478 217.885V216.616C233.35 217.039 232.504 217.321 231.516 217.321C228.696 217.321 227.568 215.488 227.568 212.949V198.847H233.632L234.055 197.154H227.568V192.359L220.093 195.462C220.798 197.154 221.08 198 221.08 200.539Z" fill="#BE008D"/>
<path d="M308.657 171.347C308.657 177.975 313.029 182.488 319.657 182.488C325.016 182.488 328.824 179.667 330.234 174.731L329.529 174.59C328.542 176.847 326.004 178.116 322.619 178.116C319.516 178.116 317.401 176.847 316.273 174.308L320.645 172.475C327.132 169.796 329.388 167.821 329.388 165.142C329.388 161.616 326.004 159.219 320.927 159.219C313.734 159.078 308.657 164.155 308.657 171.347ZM318.529 171.629L315.709 172.757C315.427 171.629 315.286 170.36 315.286 168.808C315.286 163.731 317.26 160.629 320.222 160.629C322.478 160.629 323.606 162.321 323.606 165.001C323.606 168.103 322.055 170.078 318.529 171.629ZM298.222 165.283V177.552C298.222 180.655 299.35 182.347 302.17 182.347C303.722 182.347 305.132 181.783 305.837 180.937C305.132 180.372 304.568 179.808 304.568 176.706V165.142C304.568 162.321 303.157 159.078 298.504 159.078C296.811 159.078 295.683 159.36 290.183 161.616C289.196 160.347 287.504 159.078 284.542 159.078C282.85 159.078 281.722 159.36 276.645 161.475V159.078L269.17 162.18C270.016 163.872 270.298 164.719 270.298 167.257V176.706C270.298 179.244 270.016 180.09 269.17 181.783H278.055C277.068 180.09 276.927 179.244 276.927 176.706V163.026C279.324 162.039 280.029 161.757 281.298 161.757C283.273 161.757 284.401 162.885 284.401 165.283V176.847C284.401 179.385 284.119 180.231 283.273 181.924H292.157C291.17 180.231 291.029 179.385 291.029 176.847V163.167C293.427 162.18 294.132 161.898 295.401 161.898C297.093 161.757 298.222 163.026 298.222 165.283ZM249.85 170.642C249.85 162.885 252.247 160.488 254.645 160.488C257.042 160.488 259.439 162.885 259.439 170.642C259.439 178.539 257.042 180.796 254.645 180.796C252.247 180.937 249.85 178.539 249.85 170.642ZM254.645 182.347C260.568 182.347 266.209 178.539 266.209 170.642C266.209 162.744 260.568 159.078 254.645 159.078C248.722 159.078 243.081 162.885 243.081 170.642C243.081 178.539 248.863 182.347 254.645 182.347ZM231.234 182.347C236.311 182.347 239.837 179.667 241.106 174.59L240.401 174.449C239.414 176.706 237.157 177.975 234.196 177.975C229.683 177.975 227.145 174.731 227.145 168.526C227.145 163.59 229.683 160.488 233.491 160.488C235.888 160.488 237.722 161.898 238.991 164.86H239.555V160.065C237.016 159.36 235.183 158.937 233.209 158.937C225.452 158.937 220.375 163.59 220.375 170.783C220.516 177.834 224.747 182.347 231.234 182.347ZM209.657 157.103V177.552C209.657 180.655 210.786 182.347 213.606 182.347C215.157 182.347 216.568 181.783 217.273 180.937C216.568 180.372 216.004 179.808 216.004 176.706V148.783L208.529 151.885C209.375 153.719 209.657 154.565 209.657 157.103ZM184.555 171.347C184.555 177.975 188.927 182.488 195.555 182.488C200.914 182.488 204.722 179.667 206.132 174.731L205.427 174.59C204.439 176.847 201.901 178.116 198.516 178.116C195.414 178.116 193.298 176.847 192.17 174.308L196.542 172.475C203.029 169.796 205.286 167.821 205.286 165.142C205.286 161.616 201.901 159.219 196.824 159.219C189.632 159.078 184.555 164.155 184.555 171.347ZM194.427 171.629L191.606 172.757C191.324 171.629 191.183 170.36 191.183 168.808C191.183 163.731 193.157 160.629 196.119 160.629C198.375 160.629 199.504 162.321 199.504 165.001C199.504 168.103 197.952 170.078 194.427 171.629ZM147.042 156.539L155.786 181.783H159.452L165.516 163.167L171.722 181.783H175.388L185.965 151.321H179.76C181.593 153.578 181.875 157.526 179.901 163.308L176.093 174.308L168.619 150.898L162.273 153.578C164.106 158.655 163.824 162.885 162.414 166.975L160.016 174.308L153.952 155.693C153.388 153.719 153.529 152.449 154.657 151.462H143.798C145.209 152.167 146.055 153.86 147.042 156.539Z" fill="#BE008D"/>
<path d="M221.786 87.5776C221.786 88.0007 221.645 88.5648 221.645 88.9879C221.645 89.411 221.504 89.9751 221.504 90.3981C221.363 92.3725 221.222 94.3469 220.516 96.3212C220.093 97.3084 219.952 98.1546 219.811 99.0007C219.67 99.8469 219.388 100.834 218.965 101.962C218.965 101.962 218.965 102.103 218.824 102.385C218.683 102.667 218.683 103.231 218.542 103.796C218.542 103.937 218.542 104.078 218.401 104.078C218.401 104.219 218.401 104.219 218.401 104.36C218.26 104.642 218.26 104.924 218.119 105.206C217.696 106.616 217.132 108.308 216.427 110.283C215.439 113.244 214.311 115.924 212.901 118.321C215.439 117.898 217.414 116.911 219.952 114.655C221.222 112.821 222.491 110.988 223.76 108.872C223.055 107.885 221.786 90.6802 221.786 87.5776Z" fill="#78006E"/>
<path d="M204.298 55.9879C202.747 55.0008 201.055 54.1546 199.363 53.5905C191.888 53.4495 184.696 62.4751 180.324 67.9751C183.709 68.5392 187.375 70.9367 189.068 73.052C190.055 74.1802 190.76 75.4495 191.747 76.5777C192.311 77.1418 192.452 77.8469 192.734 78.552C193.439 80.2444 192.734 81.9367 193.157 83.629C193.298 84.1931 193.298 84.7572 193.298 85.4623C193.439 86.0264 193.58 87.2956 193.58 87.7187L194.004 87.4367C198.657 84.3341 203.311 80.6674 207.683 77.2828C207.683 77.1418 207.683 77.1418 207.683 77.0008C208.106 74.4623 208.388 71.7828 208.811 69.2444C209.234 66.8469 208.952 64.4495 208.388 62.3341C207.965 59.7956 206.555 57.5392 204.298 55.9879Z" fill="#78006E"/>
<path d="M324.311 60.9238L323.606 60.5008C323.042 60.0777 321.35 59.6546 320.081 59.3726C316.414 60.0777 310.209 69.5264 309.363 72.3469C311.619 73.3341 313.734 74.8854 315.004 76.5777C315.286 77.0008 315.709 77.4238 315.991 77.8469C316.555 78.6931 317.119 79.3982 317.683 80.1033C318.247 80.8085 318.529 81.3726 318.811 82.0777V82.2187C319.234 83.2059 319.234 84.3341 319.093 85.3213C319.093 86.0264 319.093 86.7315 319.234 87.2956C319.375 87.8597 319.375 88.2828 319.375 88.8469C319.657 89.129 319.798 89.411 319.939 89.8341C319.939 90.1161 319.939 90.5392 319.798 90.8213C319.939 91.3854 320.222 92.7956 320.645 95.052C320.786 95.8982 320.927 96.7444 321.209 97.5905C325.439 86.3085 329.106 75.1674 330.093 64.7315C329.529 64.1674 328.965 63.6033 328.26 63.1802C327.132 62.1931 325.581 61.3469 324.311 60.9238Z" fill="#78006E"/>
<path d="M368.734 94.0649C368.452 94.9111 368.311 95.7572 368.17 96.6034C368.029 97.3085 367.465 99.988 367.465 99.988C367.324 100.693 367.042 101.257 366.901 101.962C366.478 103.514 366.055 105.065 365.773 106.757C365.632 107.462 365.491 108.168 365.35 108.732C365.209 109.296 364.645 112.962 363.657 113.385C364.645 113.244 369.016 112.257 370.568 110.424C370.709 110.142 371.273 108.873 371.696 107.744C371.696 107.603 371.837 107.321 371.837 107.321L371.978 107.039C371.273 105.065 369.44 98.1547 368.734 94.0649Z" fill="#78006E"/>
<path d="M257.042 75.5903C256.76 80.1032 256.337 84.616 255.773 86.4493C255.35 87.7185 255.209 88.8467 254.927 89.6929C254.786 90.8211 254.504 91.8083 254.081 93.3596C254.081 93.5006 254.081 93.6416 254.081 93.7826C254.081 95.1929 254.222 99.0006 252.529 103.936C251.683 108.449 249.85 112.68 247.17 114.936C248.44 115.36 250.837 115.219 253.799 112.398C254.504 111.129 255.068 110.001 255.491 109.436C256.478 108.026 257.042 107.321 259.157 103.231L259.299 102.808C258.17 92.0903 257.324 82.0775 257.042 75.5903Z" fill="#78006E"/>
<path d="M119.119 53.5904C108.824 49.7827 99.3754 48.3725 88.9395 46.6802C74.4139 53.3084 59.8882 59.9366 48.7472 66.4238C53.9651 66.1417 64.6831 66.2827 69.901 66.0007C72.0164 66.2827 74.2728 66.5648 76.5292 66.5648C78.6446 67.2699 80.0549 66.9879 81.8882 66.8468C86.8241 67.1289 91.1959 68.6802 96.4139 68.8212C98.3882 68.6802 100.081 70.0904 101.914 70.5135C102.76 70.2314 105.016 71.2186 105.863 71.2186C106.991 70.9366 107.978 72.2058 109.247 72.2058C111.222 72.6289 112.914 73.193 114.747 74.1802C116.44 74.7443 118.273 74.7443 119.683 76.0135C124.478 79.2571 129.273 83.0648 132.093 88.4238C133.645 91.6674 134.773 94.2058 134.773 97.1673C140.132 92.2314 143.234 88.2827 145.632 84.475C146.76 79.3981 146.901 74.6032 145.773 71.7827C139.85 63.6032 128.427 57.9622 119.119 53.5904Z" fill="#78006E"/>
<path d="M247.17 115.077C247.029 115.077 247.029 115.077 247.029 115.077C246.465 114.795 245.901 114.513 245.337 114.09C245.337 114.09 245.196 113.949 245.055 113.949C243.221 112.68 242.093 104.782 241.952 104.359C241.811 103.936 241.811 103.372 241.67 102.949C241.106 100.552 240.401 97.4491 239.555 94.3465C239.414 94.0644 239.414 93.7824 239.273 93.5003C239.132 93.0773 238.991 92.6542 238.991 92.3721C239.132 89.5516 238.85 86.7311 238.427 84.0516C238.286 82.6414 238.145 81.2311 238.004 79.8209C237.863 78.8337 237.863 79.3978 237.863 78.8337C237.721 77.7055 237.721 77.0003 237.721 75.026C237.721 73.6157 237.721 72.2055 237.721 70.6542C237.721 69.9491 237.721 69.2439 237.721 68.6798V68.1157C237.721 68.1157 233.632 69.9491 232.786 70.3721C232.504 70.5132 232.222 70.6542 231.939 70.7952C230.388 71.5003 230.106 71.6414 229.683 72.0644C229.401 72.3465 229.119 72.6285 228.132 73.1926C228.132 73.1926 223.619 76.0132 221.504 77.8465V77.9875V78.1285C221.504 78.2696 221.504 78.2696 221.504 78.4106C221.504 78.5516 221.504 78.6926 221.504 78.8337C221.504 79.3978 221.504 80.1029 221.645 80.9491C221.645 81.3721 221.645 81.9362 221.786 82.5003C221.786 83.2055 221.927 83.9106 221.927 84.7568C222.068 85.6029 222.068 85.1798 222.209 86.026C222.209 86.5901 222.35 87.0132 222.35 87.5773C222.35 87.5773 222.35 87.7183 222.35 88.0003C222.35 91.1029 223.619 108.308 224.324 109.295H224.606C224.747 110.846 225.311 112.116 225.875 113.244C226.157 113.667 226.439 114.231 226.58 114.654C227.427 116.064 228.132 117.475 228.414 119.167C228.414 119.449 228.555 119.731 228.555 120.013C229.119 120.859 229.401 121.705 230.247 122.411C230.67 122.834 230.952 123.116 231.375 123.398C232.221 123.821 233.209 123.962 234.196 124.103C235.324 124.244 236.311 124.385 237.298 124.526C237.58 124.526 238.004 124.385 238.286 124.244C238.427 124.244 238.709 124.103 238.85 124.103C243.08 122.975 248.721 120.718 251.542 117.052L252.811 115.359C252.811 115.218 252.952 115.218 252.952 115.077C253.234 114.654 253.939 113.385 254.221 112.821C250.837 115.359 248.439 115.359 247.17 115.077Z" fill="#BE008D"/>
<path d="M212.901 118.321C212.76 118.321 211.632 118.462 211.632 118.462C210.786 118.462 210.363 118.18 210.363 118.18C209.234 117.193 208.247 114.372 207.965 112.398C207.824 111.27 207.119 106.193 207.119 106.052C206.978 105.347 206.978 104.077 206.837 102.385C206.978 100.693 207.119 99.2826 207.119 98.0134C207.26 96.18 207.26 95.6159 207.683 93.5006C207.824 92.6544 207.965 89.9749 207.965 87.7185V86.3082H207.683L207.26 86.4493C207.26 86.4493 206.555 86.8723 206.414 87.0134C206.132 87.1544 205.709 87.4365 205.427 87.5775C204.157 88.2826 202.747 89.1288 201.478 89.9749C199.645 91.2441 197.952 92.5134 196.401 93.7826C195.837 94.2057 195.414 94.6288 194.85 95.0518C193.157 96.4621 191.465 97.8724 190.055 99.5647C189.491 100.129 188.08 101.68 188.08 101.68C182.157 107.18 178.068 110.706 172.709 112.257C171.722 112.539 171.157 112.821 171.016 113.244C170.875 113.244 170.593 113.244 170.17 113.244C170.029 113.244 170.029 113.244 169.888 113.244C169.465 113.244 168.901 113.244 168.619 113.385C168.337 113.385 167.914 113.526 167.632 113.526C167.209 113.526 166.927 113.385 166.645 113.244C165.798 112.539 165.234 111.693 164.952 110.988L164.811 110.706C164.106 108.872 163.401 107.039 163.26 105.206C162.978 101.398 163.401 97.8723 164.388 94.7698C165.657 90.9621 167.068 86.8723 169.324 83.2057C171.439 79.398 173.978 76.0134 176.798 72.3467C177.504 71.5006 178.209 70.6544 178.914 69.9493C179.196 69.5262 179.619 68.9621 179.901 68.539L180.042 68.257C184.414 62.757 191.606 53.7313 199.08 53.8724C197.952 53.5903 196.683 53.3082 195.555 53.1672C194.991 53.1672 192.734 52.8852 192.029 52.8852H191.888C190.619 52.7441 189.35 52.6031 188.363 53.3082C183.991 54.2954 180.324 56.9749 177.222 59.3724C172.85 62.757 168.196 66.4236 163.965 70.5134C158.042 76.2954 154.093 81.7954 151.696 87.8595C151.555 88.2826 151.273 88.8467 150.991 89.2698C150.85 89.5518 150.709 89.8339 150.568 90.257C150.286 90.9621 149.863 91.6672 149.58 92.3723C148.452 94.6288 147.324 97.1672 146.619 99.7057C146.478 100.411 146.337 101.116 146.196 101.821C146.055 102.385 146.055 102.949 145.914 103.513C145.491 105.488 144.927 107.462 144.504 109.295C144.08 110.706 144.504 111.975 145.491 112.821C145.914 113.244 146.196 113.526 146.196 114.231C146.76 117.757 148.17 120.295 150.85 122.693C150.991 122.834 151.132 122.975 151.273 122.975C151.414 122.975 151.555 123.116 151.555 123.257C152.119 124.385 153.106 124.808 154.375 124.808C154.798 124.808 155.222 124.808 155.927 124.667L156.35 124.526C156.914 123.962 157.055 123.116 156.773 122.129C157.055 122.129 156.491 121.565 156.632 121.565C157.478 121.565 159.17 122.129 159.875 122.129H160.016C160.58 122.27 161.286 122.27 161.85 122.27C162.978 122.27 163.824 121.988 164.67 121.424C164.67 121.424 164.811 121.424 165.234 121.424H165.516C165.657 121.424 165.798 121.424 165.798 121.424C168.055 121.283 170.311 120.154 172.286 119.167C173.555 118.603 174.824 117.898 175.952 117.616C176.516 117.475 176.939 117.193 177.363 116.911C177.504 116.77 177.645 116.629 177.927 116.629C178.914 116.065 179.76 115.219 180.606 114.372C181.452 113.526 182.439 112.539 183.427 112.116C184.414 111.552 185.542 110.847 186.811 109.86C187.093 109.577 187.375 109.295 187.657 109.013C187.939 108.872 188.08 108.59 188.363 108.449C189.209 108.026 190.055 107.744 191.042 107.603V107.744C191.465 110.001 192.452 114.654 192.452 114.654C192.593 115.36 192.734 116.065 192.734 116.629L192.875 117.193C193.016 117.898 193.157 118.744 194.145 119.449C194.991 120.154 195.696 121.283 196.26 122.834C196.683 124.244 198.234 125.654 200.35 125.654C201.337 125.936 202.465 126.077 203.593 126.077C204.722 126.077 205.991 125.936 207.401 125.654C208.106 125.513 212.901 124.244 216.004 120.154C216.427 119.731 216.85 119.308 217.132 118.744C217.978 117.334 218.824 116.206 219.67 115.077C217.555 116.911 215.439 117.898 212.901 118.321Z" fill="#BE008D"/>
<path d="M102.478 4.23126L102.619 4.09023L103.888 0.000488281C96.2729 2.821 69.619 12.2697 59.8883 15.5133L59.6062 15.6543L58.619 19.8851L59.6062 19.603C69.76 16.2184 95.0036 7.1928 102.478 4.23126Z" fill="#BE008D"/>
<path d="M363.234 54.8595C365.209 56.4108 368.593 58.9492 370.427 60.6415C371.978 62.0518 370.286 60.5005 372.119 61.4877C372.542 61.7697 372.965 62.0518 373.247 62.4749C374.657 64.0261 375.363 65.0133 376.773 63.6031C377.337 63.039 377.478 61.0646 377.196 60.3595C375.645 57.1159 376.914 57.1159 379.734 57.962C381.568 58.5261 381.568 56.8338 381.709 54.4364C381.709 54.1543 381.568 52.8851 381.709 52.7441C382.696 52.039 384.811 51.0518 384.247 50.3467C383.824 49.6415 384.106 49.5005 383.683 48.6543C383.119 48.2313 380.439 46.821 380.439 45.8338C380.298 45.1287 379.875 44.4236 379.452 43.8595C377.901 42.3082 374.375 40.0518 372.542 38.9236C372.26 38.6415 371.837 38.5005 371.555 38.0774C371.273 37.6543 370.568 37.3723 370.427 36.9492C369.016 37.3723 368.875 37.9364 367.888 38.7825C365.491 41.18 363.798 44.2826 361.542 46.821C360.837 47.6672 360.273 48.6543 359.427 49.5005C359.004 49.9236 358.863 50.4877 358.58 50.9108C358.58 51.4749 357.734 52.039 357.875 52.6031C359.145 52.8851 360.978 53.4492 361.965 54.1543C362.388 54.2954 362.811 54.5774 363.234 54.8595Z" fill="#BE008D"/>
<path d="M360.696 111.975C360.414 111.693 360.273 111.129 360.132 110.706C360.132 110.565 359.991 110.283 359.991 110.142C359.85 109.437 359.568 108.872 359.427 108.167C358.863 106.616 358.298 106.052 358.016 104.501C357.452 102.385 357.17 100.129 356.747 97.8725C356.606 96.7443 356.324 95.7571 356.183 94.6289L355.901 93.5007C355.196 89.552 354.35 85.6033 354.068 81.5135V81.2315C354.068 80.6674 353.927 80.1033 353.645 79.5392C353.363 78.834 353.222 78.1289 353.081 77.2827V77.1417C352.94 76.4366 352.798 75.5904 352.798 74.8853C352.657 73.6161 352.375 72.3468 352.375 71.0776C352.234 69.8084 351.811 66.5648 351.388 63.7443C351.106 61.911 350.824 60.3597 350.824 59.7956C350.824 59.6545 350.824 59.5135 350.824 59.3725C350.824 58.5263 350.683 57.6802 350.401 57.1161C350.119 56.552 349.978 55.5648 349.837 54.0135C349.696 52.8853 349.696 51.6161 349.696 50.4879C349.555 48.6545 349.555 46.6802 349.273 44.8469C349.132 43.2956 349.414 29.193 349.555 24.3981C349.696 21.0135 349.837 18.052 349.837 17.0648C349.837 16.2186 349.696 15.2315 349.555 14.3853C349.414 13.9622 349.555 12.1289 349.555 12.1289L348.427 12.552C347.157 12.693 345.324 13.9622 343.632 15.0904C342.786 15.6545 341.94 16.3597 341.516 16.5007C340.67 16.9238 339.401 17.7699 338.132 18.6161C336.44 19.7443 334.465 21.0135 333.619 21.2956C333.196 21.4366 331.927 22.2827 331.927 22.2827C331.927 22.2827 333.055 22.9879 333.619 23.552C334.042 23.9751 334.465 24.5392 334.465 24.9622C334.324 26.3725 334.183 28.9109 334.183 31.7315C334.324 33.1417 334.183 40.052 334.324 41.8853C334.042 43.5776 333.76 48.7956 333.196 51.334C332.209 56.2699 331.081 61.7699 330.799 64.1674C330.799 64.3084 330.799 64.4494 330.657 64.5904C329.67 75.0263 326.004 86.1674 321.773 97.4494C321.773 97.5904 321.632 97.7315 321.632 97.8725C321.491 98.1545 321.35 98.5776 321.209 98.8597C321.068 99.2828 320.786 99.7058 320.645 100.27C320.504 100.552 320.363 100.834 320.222 100.975C320.081 101.257 319.94 101.68 319.657 101.962C319.516 102.103 319.516 102.385 319.375 102.526L319.093 103.09C315.709 109.719 312.324 113.526 310.209 115.501L309.927 115.783C309.222 116.347 308.516 116.629 307.952 116.629C306.401 116.629 304.991 114.796 304.145 113.667C304.004 113.385 303.722 113.244 303.581 112.962C302.875 112.257 302.311 111.411 301.888 110.283C300.76 107.321 300.337 104.219 300.478 100.975C300.76 95.4751 302.029 89.9751 304.004 84.6161C304.85 82.3597 305.978 79.3981 307.388 76.5776C307.529 76.4366 307.529 76.1545 307.67 76.0135L307.811 75.5904C307.811 75.4494 307.952 75.4494 307.952 75.3084C307.952 75.1674 308.093 75.0263 308.093 74.8853C308.234 74.7443 308.234 74.6033 308.375 74.3212C308.516 74.1802 308.516 74.0392 308.657 73.8981C308.798 73.6161 308.94 73.334 309.222 73.052L309.504 72.6289C309.645 72.3468 309.786 72.0648 309.927 71.9238L310.068 71.7827C310.914 69.1033 317.119 59.5135 320.786 58.8084C320.786 58.8084 320.222 58.6674 319.94 58.6674C319.657 58.6674 319.375 58.6674 319.375 58.6674C317.824 58.6674 316.555 58.9494 315.427 59.5135C314.44 59.9366 312.888 60.2186 311.337 60.6417C309.222 61.0648 306.965 61.4879 305.555 62.4751C303.722 63.7443 301.888 64.8725 300.055 65.8597L299.209 66.2827C296.811 67.693 294.696 69.8084 293.145 72.3469C291.875 74.4622 290.606 76.8597 290.888 79.8212C291.029 80.6674 290.747 81.6545 290.465 82.5007C290.042 83.9109 289.619 85.3212 289.196 86.7315C288.773 88.2827 288.209 89.834 287.786 91.3853C287.645 92.0904 287.504 92.9366 287.363 93.6417C287.363 93.9238 287.222 94.3469 287.222 94.6289V94.9109L287.363 95.052C288.068 96.0392 287.786 97.1674 287.363 98.4366C287.222 98.7186 287.222 99.1417 287.081 99.4238V99.5648C286.94 100.27 286.798 101.116 287.222 101.821C286.093 102.949 286.657 104.219 287.081 104.924L287.222 105.347C287.504 106.052 287.504 106.757 287.645 107.462C287.786 108.308 287.786 109.155 288.068 110.001C288.491 110.988 290.324 112.257 290.747 112.539C290.888 112.68 291.17 112.821 291.452 113.103C291.311 113.244 290.747 114.09 290.465 114.09C290.183 114.231 288.914 114.937 288.35 115.078C287.222 115.219 286.093 115.078 285.106 114.655C284.965 114.655 284.824 114.514 284.683 114.372C284.542 114.372 284.542 114.231 284.401 114.231C284.26 114.09 284.119 114.09 283.978 113.949C283.837 113.949 283.837 113.808 283.696 113.808C283.555 113.667 283.414 113.526 283.273 113.385C283.273 113.244 283.132 113.244 283.132 113.103C282.991 112.821 282.709 112.68 282.568 112.398C282.427 112.257 282.286 112.116 282.004 111.975C281.157 111.129 280.452 110.142 280.029 109.155C279.888 108.731 279.888 108.449 279.888 108.026C279.324 107.18 279.042 106.334 278.76 105.347C278.478 103.796 278.055 102.385 277.632 100.975C277.068 99.1417 276.645 97.4494 276.363 95.4751C276.222 94.3469 276.081 93.3597 275.94 92.3725C275.799 90.9622 275.657 89.693 275.375 88.0007C275.234 87.4366 275.234 87.0135 275.093 86.5904C274.952 86.0263 274.811 85.3212 274.67 84.193C274.529 83.0648 274.388 82.2186 274.247 81.0904C274.106 80.1033 273.965 79.1161 273.683 77.4238C273.683 77.2827 273.542 76.2956 273.401 75.5904L273.26 74.8853C273.119 74.3212 273.119 73.8981 272.978 73.334C272.696 72.0648 272.555 70.6545 272.555 69.3853C272.555 68.8212 272.555 68.2571 272.555 67.552C272.555 65.5776 272.555 63.4622 272.414 61.9109L272.273 60.0776C272.273 60.0776 268.183 62.052 267.196 62.7571C266.914 62.8981 266.773 63.0392 266.491 63.1802C264.093 64.5904 263.106 65.1545 260.709 66.1417L259.863 66.5648C258.17 67.411 257.183 67.834 256.901 68.1161L256.619 68.2571V68.5392C256.619 68.5392 256.619 68.6802 256.619 68.8212C256.619 68.9622 256.619 68.9622 256.619 69.1033C256.619 69.3853 256.76 69.6674 256.76 69.9494L256.901 70.9366C256.901 71.2186 257.042 71.5007 257.042 71.7827C257.042 71.9238 257.042 72.0648 257.042 72.3469C257.042 72.6289 257.183 74.6033 257.183 75.1674C257.465 81.5135 258.311 91.6674 259.44 102.385C259.44 102.526 259.44 102.667 259.44 102.808C260.004 107.039 260.004 107.18 260.145 107.321C260.427 107.744 260.709 108.167 260.991 108.59C261.132 108.731 261.132 108.872 261.273 109.014C261.978 110.283 262.824 111.834 264.657 112.398C264.657 112.398 264.94 112.539 265.081 112.821C266.068 114.514 267.055 116.347 267.76 117.898C268.747 119.731 270.157 121.283 271.991 122.693C272.414 122.975 272.837 123.116 273.26 123.116H273.401C273.683 123.116 273.965 123.116 274.247 123.116C274.529 123.116 274.67 123.116 274.952 123.116C275.093 123.116 275.234 123.116 275.234 123.116C275.375 123.116 275.657 123.257 275.798 123.398C276.081 123.68 276.504 123.821 277.068 123.821C277.209 123.821 277.35 123.821 277.35 123.821C277.914 123.821 278.337 123.821 278.901 123.962C279.465 123.962 280.029 124.103 280.593 124.103C281.299 124.103 281.863 124.103 282.427 123.962C284.683 123.539 286.516 122.552 287.786 121.283C288.632 120.437 289.619 119.731 290.606 119.026C290.747 118.885 290.888 118.885 291.029 118.744C291.452 118.462 291.875 118.18 292.157 117.898C292.44 117.616 292.863 117.475 293.286 117.193C293.709 116.911 293.991 116.77 294.414 116.488C294.696 116.206 294.837 115.924 295.119 115.642C295.965 116.206 296.529 116.77 296.67 117.193C297.093 118.603 297.94 119.167 298.927 119.731C299.914 120.296 301.183 120.719 302.311 121.142C302.734 121.283 304.709 121.283 304.991 121.283C306.683 121.283 307.247 121.142 307.529 121.001H307.811C309.786 120.719 312.042 119.731 312.324 119.59C316.414 117.898 319.657 114.514 321.914 112.398C322.619 111.693 323.183 111.129 323.606 110.706C323.888 110.424 324.311 110.142 324.593 109.719C327.273 106.616 330.093 103.09 332.35 99.1417C332.491 98.8597 332.632 98.7186 332.773 98.4366C333.337 97.4494 334.042 96.1802 334.183 94.9109C335.029 94.6289 335.311 94.0648 335.311 93.6417C335.311 93.2186 335.452 92.6545 335.452 92.2315C335.452 91.8084 335.593 91.3853 335.593 90.8212C335.734 90.5392 336.722 88.4238 337.709 86.1674L337.85 86.3084C337.85 86.4494 337.85 86.7315 337.85 86.8725C337.709 87.5776 337.991 88.1417 338.132 88.7058C338.273 88.9879 338.273 89.2699 338.414 89.552C338.555 90.1161 340.67 93.9238 340.811 94.3468C340.952 95.193 341.093 96.0392 341.516 96.8853C341.657 97.0263 341.798 97.3084 341.798 97.4494C341.94 97.7315 342.081 98.0135 342.081 98.4366C342.222 99.1417 342.504 99.9879 343.068 100.552C342.786 101.116 342.927 101.539 343.068 101.821V101.962C343.632 104.078 344.196 105.911 344.76 107.744C344.901 108.167 345.042 108.59 345.183 109.014C345.465 110.001 345.747 110.988 345.888 111.975C346.029 113.808 346.593 115.36 347.157 116.911C347.722 117.052 348.004 117.475 348.004 118.321C348.004 118.462 348.004 118.462 348.004 118.603C348.85 119.59 349.837 120.719 350.965 121.565C351.106 121.706 351.247 121.847 351.388 121.847C351.952 121.988 352.657 122.129 353.222 122.27C353.645 122.411 353.927 122.411 354.35 122.552C355.478 122.552 356.606 122.27 357.875 122.27L358.722 121.988V121.847C359.145 121.706 359.85 121.283 361.26 120.719C361.401 120.578 361.683 120.578 361.683 120.578C362.529 119.872 363.375 119.308 364.222 118.885C365.773 117.898 368.593 113.244 369.016 112.962C369.298 112.68 370.004 111.975 370.004 111.693C370.004 111.129 370.286 110.706 370.568 110.424L370.709 110.283C369.157 112.257 364.786 113.244 363.799 113.244C362.529 113.526 360.978 112.398 360.696 111.975Z" fill="#BE008D"/>
<path d="M399.76 122.552C399.619 122.411 399.478 122.27 399.196 122.129C399.055 122.129 398.914 122.129 398.632 121.988C396.516 122.129 393.837 120.859 392.85 119.731C391.863 118.603 387.773 103.513 387.068 101.398C386.786 100.552 386.363 97.7313 386.081 97.1672C385.657 96.462 385.375 95.7569 385.234 94.9108C385.234 94.3466 384.106 88.8466 384.106 88.0005C384.106 87.2954 383.965 86.7313 383.965 86.0261C383.824 84.4749 382.837 77.2825 382.696 75.7313C382.555 74.8851 382.414 73.8979 382.414 72.9108C382.414 72.9108 382.414 72.7697 382.414 72.6287C382.555 71.0774 382.555 70.5133 382.273 70.2313L382.132 69.9492H381.85C381.427 69.9492 380.581 70.3723 378.324 71.5005C377.619 71.9236 376.632 72.3466 376.35 72.4877C374.375 73.0518 371.837 74.039 370.286 74.7441C369.44 75.1672 365.632 76.7184 365.632 76.7184C366.196 77.2825 368.17 78.6928 368.17 78.6928C368.734 80.1031 368.593 93.5005 368.593 93.7825C369.299 97.8723 371.273 104.783 371.696 106.475C371.837 106.757 371.837 106.898 371.837 106.898C371.837 106.898 372.542 109.859 372.824 111.411C373.106 111.693 373.247 111.975 373.388 112.116C373.952 113.103 374.234 116.77 374.516 117.898C375.081 119.731 375.927 121.424 376.209 123.398C378.606 126.359 381.145 129.18 385.093 129.744C385.94 129.885 386.786 129.885 387.632 129.885C387.914 129.744 388.196 129.744 388.478 129.603C390.734 128.898 392.709 128.052 394.683 127.065C395.811 126.5 396.799 125.936 397.645 125.231C397.786 125.09 398.068 124.949 398.209 124.667C399.196 124.385 399.619 123.68 399.76 122.552C399.76 122.693 399.76 122.693 399.76 122.552Z" fill="#BE008D"/>
<path d="M279.747 109.577L279.606 108.449C279.606 108.731 279.606 109.154 279.747 109.577Z" fill="#BE008D"/>
<path d="M294.273 139.334L293.286 143.001L294.273 142.718C303.016 139.898 324.452 132.142 330.798 129.603L330.939 129.462L331.927 125.795C325.439 128.193 302.875 136.231 294.414 139.052L294.273 139.334Z" fill="#BE008D"/>
<path d="M258.452 47.3848C258.029 47.2438 256.76 46.8207 256.196 46.6797H255.914L256.055 46.3976C256.337 45.5515 256.478 44.5643 256.478 43.5771C256.478 36.5258 253.375 34.1284 250.837 34.1284C248.721 34.1284 246.465 35.1156 244.773 36.8079C242.798 38.6412 241.811 40.8976 241.811 43.2951C241.811 46.9618 244.35 49.0771 249.85 50.0643L250.414 50.2053L249.991 50.4874C246.324 53.3079 236.452 57.2566 230.247 59.7951L228.555 60.5002L230.247 60.9233C231.657 61.2053 234.196 61.4874 235.465 61.4874H235.606H235.747C238.286 60.6412 249.709 56.1284 253.798 51.0515L253.939 50.9105H254.08C254.363 51.0515 255.491 51.4746 255.914 51.6156L256.337 51.7566L259.298 47.6669L258.452 47.3848ZM253.516 46.1156L253.375 46.3976H253.093C247.17 45.2694 243.927 43.1541 243.927 40.7566C243.927 39.2053 246.183 37.513 248.298 37.513C250.696 37.513 253.516 40.6156 253.516 44.8464C253.798 45.2694 253.657 45.6925 253.516 46.1156Z" fill="#BE008D"/>
<path d="M35.4908 67.9748C37.3241 67.5517 39.2984 67.2697 41.1318 67.1286C41.9779 66.9876 42.8241 66.9876 43.6702 66.9876C44.0933 66.9876 47.0548 66.2825 48.7472 66.5645C59.8882 59.9363 74.4138 53.3081 88.9395 46.8209C94.5805 44.4235 99.0933 43.1543 106.145 40.1927C108.683 39.9107 120.388 32.8594 120.952 36.385C121.939 37.7953 123.632 39.0645 123.632 39.0645C127.298 32.8594 128.286 30.1799 130.119 24.5389C132.234 17.9107 135.196 15.0902 136.183 7.75684C134.35 7.89786 131.529 9.73119 130.26 10.4363C127.157 11.8466 123.632 13.3979 120.247 15.0902C112.068 18.4748 103.606 19.744 95.4266 22.5645C92.6061 23.1286 91.76 24.1158 89.2215 24.5389C88.5164 25.385 86.542 25.8081 85.4138 25.8081C83.0164 26.6543 81.1831 27.2184 78.7856 28.6286C76.9523 28.3466 75.1189 30.603 72.7215 30.1799C69.901 31.5902 61.5805 35.6799 57.4908 35.962C55.5164 36.103 49.3113 38.0773 46.6318 38.5004C45.6446 38.9235 46.0677 39.7697 45.3625 40.4748C43.3882 48.3722 39.8625 53.1671 36.76 60.9235C36.4779 63.885 33.9395 67.1286 35.4908 67.9748Z" fill="#BE008D"/>
<path d="M144.927 87.0134C145.068 86.3082 145.35 85.6031 145.491 84.898C145.491 84.757 145.491 84.7569 145.491 84.6159C143.093 88.2826 139.991 92.2313 134.632 97.1672V97.3082C134.068 97.8723 133.504 98.4364 132.939 99.0005C127.439 104.924 121.375 109.577 114.888 114.231C111.927 117.334 108.542 119.59 104.593 121.424C96.6959 126.077 88.0933 129.039 79.6318 132.424C77.3754 133.411 75.5421 132.706 74.4138 135.244C74.2728 135.103 74.1318 134.962 73.9908 134.962C70.1831 135.385 64.8241 136.231 61.7215 138.629C65.8113 143.565 73.7087 134.68 77.9395 138.911C76.3882 140.744 73.9908 141.026 72.0164 142.295C70.7472 141.872 69.619 142.719 68.4908 143.001C66.5164 143.565 63.1318 144.129 61.1574 144.693C54.2472 144.975 47.478 146.526 40.5677 146.103C9.54206 144.129 -0.61179 119.872 10.3882 92.6544C11.7985 89.6929 13.4908 87.0134 15.3241 84.1929C14.0549 82.3595 9.68308 89.2698 8.41385 91.1031C-1.74 109.718 -5.54769 133.975 13.4908 148.501C14.0549 148.783 14.901 149.065 15.3241 149.347C15.8882 148.924 16.3113 148.642 16.4523 148.501C17.0164 148.077 17.0164 148.218 19.5549 149.488C29.8497 154.424 42.9651 154.847 54.5292 153.013C55.3754 153.013 56.0805 152.872 56.9267 152.872C58.0549 153.295 59.1831 152.731 60.1703 152.449C60.5933 152.308 61.1574 152.308 61.7215 152.167H61.8626C65.1062 151.462 68.3497 151.039 70.3241 148.077C71.4523 148.36 72.4395 148.924 73.4267 148.077C77.9395 147.09 82.1703 145.398 86.401 143.424C87.5292 143.283 87.8113 144.27 89.0805 144.129C112.35 134.398 134.068 117.757 142.388 92.9364V92.7954C142.811 91.8082 143.234 90.8211 143.516 89.8339V89.6929C143.516 89.5518 143.516 89.4108 143.657 89.4108C144.363 88.5646 144.645 87.8595 144.927 87.0134C144.786 87.1544 144.786 87.0134 144.927 87.0134Z" fill="#BE008D"/>
</svg>
